<svg width="16" height="17" viewBox="0 0 16 17" fill="none" xmlns="http://www.w3.org/2000/svg">
<path d="M10.3536 6.02669V6.33974H10.6667H13.3333C13.9576 6.33974 14.5562 6.58771 14.9976 7.0291C15.439 7.47049 15.687 8.06914 15.687 8.69336V14.0267C15.687 14.6509 15.439 15.2496 14.9976 15.691C14.5562 16.1323 13.9576 16.3803 13.3333 16.3803H8C7.37578 16.3803 6.77713 16.1323 6.33574 15.691C5.89435 15.2496 5.64638 14.6509 5.64638 14.0267V11.36V11.047H5.33333H2.374C1.82808 11.0448 1.30512 10.827 0.919075 10.441C0.53305 10.0549 0.315225 9.53199 0.313043 8.98609V3.0673C0.315225 2.52139 0.53305 1.99846 0.919075 1.61243C1.3051 1.22641 1.82803 1.00858 2.37394 1.0064H8.29273C8.83863 1.00858 9.36157 1.22641 9.74759 1.61243C10.1336 1.99848 10.3515 2.52144 10.3536 3.06736V6.02669ZM5.33333 9.89529H5.64638V9.58225V8.69336C5.64638 8.06914 5.89435 7.47049 6.33574 7.0291C6.77713 6.58771 7.37578 6.33974 8 6.33974H8.88889H9.20193V6.02669V3.06669C9.20193 2.82572 9.1062 2.59461 8.93581 2.42422L8.71445 2.64557L8.93581 2.42422C8.76541 2.25382 8.53431 2.15809 8.29333 2.15809H2.37333C2.13236 2.15809 1.90125 2.25382 1.73086 2.42422L1.95221 2.64557L1.73086 2.42422C1.56046 2.59461 1.46473 2.82572 1.46473 3.06669V8.98669C1.46473 9.22767 1.56046 9.45877 1.73086 9.62917L1.95221 9.40781L1.73086 9.62917C1.90125 9.79956 2.13236 9.89529 2.37333 9.89529H5.33333Z" fill="url(#paint0_linear_82_886)" fill-opacity="0.5" stroke="url(#paint1_linear_82_886)" stroke-width="0.626087"/>
<defs>
<linearGradient id="paint0_linear_82_886" x1="1.83072" y1="0.693359" x2="1.83072" y2="18.8184" gradientUnits="userSpaceOnUse">
<stop stop-color="#12384F"/>
<stop offset="1" stop-color="#091422"/>
</linearGradient>
<linearGradient id="paint1_linear_82_886" x1="0" y1="8.69336" x2="16" y2="8.69336" gradientUnits="userSpaceOnUse">
<stop stop-color="white" stop-opacity="0.8"/>
<stop offset="1" stop-color="white" stop-opacity="0.2"/>
</linearGradient>
</defs>
</svg>
