<svg width="25" height="25" viewBox="0 0 25 25" fill="none" xmlns="http://www.w3.org/2000/svg">
<path d="M12.75 24.6934C19.3774 24.6934 24.75 19.3208 24.75 12.6934C24.75 6.06594 19.3774 0.693359 12.75 0.693359C6.12258 0.693359 0.75 6.06594 0.75 12.6934C0.75 19.3208 6.12258 24.6934 12.75 24.6934Z" fill="#F7931A"/>
<path d="M18.1412 11.2084C18.3767 9.63636 17.1789 8.79111 15.5424 8.22711L16.0734 6.09711L14.7774 5.77461L14.2599 7.84836C13.9194 7.76286 13.5699 7.68336 13.2212 7.60386L13.7424 5.51661L12.4464 5.19336L11.9154 7.32261C11.6334 7.25811 11.3559 7.19511 11.0874 7.12761L11.0889 7.12086L9.30094 6.67461L8.95594 8.05911C8.95594 8.05911 9.91819 8.27961 9.89794 8.29311C10.4229 8.42436 10.5174 8.77161 10.5017 9.04761L9.89719 11.4739C9.93319 11.4829 9.97969 11.4964 10.0322 11.5166L9.89494 11.4829L9.04744 14.8819C8.98294 15.0409 8.82019 15.2801 8.45269 15.1894C8.46619 15.2081 7.51069 14.9546 7.51069 14.9546L6.86719 16.4381L8.55469 16.8589C8.86819 16.9376 9.17569 17.0201 9.47794 17.0974L8.94169 19.2514L10.2369 19.5739L10.7679 17.4439C11.1219 17.5391 11.4654 17.6276 11.8014 17.7116L11.2719 19.8326L12.5679 20.1551L13.1042 18.0056C15.3152 18.4241 16.9772 18.2554 17.6769 16.2559C18.2409 14.6464 17.6492 13.7171 16.4859 13.1119C17.3334 12.9169 17.9709 12.3596 18.1412 11.2084ZM15.1787 15.3619C14.7789 16.9721 12.0677 16.1014 11.1887 15.8831L11.9012 13.0294C12.7802 13.2491 15.5979 13.6834 15.1787 15.3619ZM15.5799 11.1851C15.2147 12.6499 12.9587 11.9051 12.2274 11.7229L12.8724 9.13536C13.6037 9.31761 15.9609 9.65736 15.5799 11.1851Z" fill="white"/>
</svg>
