<svg width="25" height="25" viewBox="0 0 25 25" fill="none" xmlns="http://www.w3.org/2000/svg">
<path d="M12.75 24.6934C19.3774 24.6934 24.75 19.3208 24.75 12.6934C24.75 6.06594 19.3774 0.693359 12.75 0.693359C6.12258 0.693359 0.75 6.06594 0.75 12.6934C0.75 19.3208 6.12258 24.6934 12.75 24.6934Z" fill="#627EEA"/>
<path d="M13.123 3.69336V10.3459L18.7458 12.8584L13.123 3.69336Z" fill="white" fill-opacity="0.602"/>
<path d="M13.1235 3.69336L7.5 12.8584L13.1235 10.3459V3.69336Z" fill="white"/>
<path d="M13.123 17.1693V21.6895L18.7495 13.9053L13.123 17.1693Z" fill="white" fill-opacity="0.602"/>
<path d="M13.1235 21.6895V17.1685L7.5 13.9053L13.1235 21.6895Z" fill="white"/>
<path d="M13.123 16.1234L18.7458 12.8587L13.123 10.3477V16.1234Z" fill="white" fill-opacity="0.2"/>
<path d="M7.5 12.8587L13.1235 16.1234V10.3477L7.5 12.8587Z" fill="white" fill-opacity="0.602"/>
</svg>
