<svg width="52" height="52" viewBox="0 0 52 52" fill="none" xmlns="http://www.w3.org/2000/svg">
<rect opacity="0.2" x="0.838064" y="0.83782" width="50.3239" height="50.3239" rx="25.1619" fill="white" fill-opacity="0.6" stroke="url(#paint0_linear_273_1360)" stroke-width="0.323871"/>
<path d="M30.9878 33.7308C31.7381 33.4418 32.4628 33.0883 33.1539 32.6742L33.2403 32.6224L33.1573 32.5653C32.9753 32.4401 32.7949 32.3002 32.6179 32.1537L32.5861 32.1273L32.5487 32.1451C30.5 33.123 28.2639 33.63 26 33.63C23.736 33.63 21.4999 33.123 19.4512 32.1451L19.4151 32.1279L19.3835 32.1525C19.2076 32.2895 19.0262 32.4301 18.8409 32.5665L18.7625 32.6242L18.846 32.6742C19.5358 33.0876 20.2591 33.4404 21.008 33.7287C20.6188 34.496 20.1694 35.2302 19.6641 35.9242C17.3312 35.2013 15.1361 34.0817 13.1722 32.6131C12.7201 27.7405 13.638 22.799 17.009 17.73C18.6949 16.949 20.4728 16.3916 22.2988 16.0715C22.5423 16.5168 22.7632 16.9744 22.9607 17.4425L22.9803 17.489L23.0302 17.4814C24.9969 17.1806 26.9969 17.1806 28.9636 17.4814L29.0134 17.489L29.033 17.4425C29.2305 16.9743 29.4514 16.5167 29.695 16.0715C31.5199 16.3889 33.2966 16.945 34.9808 17.7259C37.9042 22.0703 39.3579 26.9669 38.8277 32.6152C36.8635 34.0851 34.6666 35.2042 32.3317 35.9243C31.8259 35.2313 31.3765 34.4977 30.9878 33.7308ZM19.2747 27.0002C19.2747 28.4816 20.3562 29.6988 21.6809 29.6988C23.0315 29.6988 24.0623 28.4803 24.0852 27.0012C24.1081 25.5188 23.0343 24.2911 21.6769 24.2911C20.3184 24.2911 19.2747 25.5198 19.2747 27.0002ZM27.9147 27.0002C27.9147 28.4815 28.992 29.6988 30.319 29.6988C31.6696 29.6988 32.6982 28.4802 32.7211 27.0012C32.7441 25.5191 31.6787 24.2911 30.319 24.2911C28.9585 24.2911 27.9147 25.5198 27.9147 27.0002Z" fill="white" stroke="url(#paint1_linear_273_1360)" stroke-width="0.129548"/>
<defs>
<linearGradient id="paint0_linear_273_1360" x1="1" y1="0.999756" x2="51" y2="50.9998" gradientUnits="userSpaceOnUse">
<stop stop-color="white" stop-opacity="0.25"/>
<stop offset="1" stop-color="white" stop-opacity="0"/>
</linearGradient>
<linearGradient id="paint1_linear_273_1360" x1="18.3333" y1="34.2049" x2="28.6292" y2="15.4664" gradientUnits="userSpaceOnUse">
<stop stop-color="white" stop-opacity="0.25"/>
<stop offset="1" stop-color="white" stop-opacity="0"/>
</linearGradient>
</defs>
</svg>
