<svg width="52" height="52" viewBox="0 0 52 52" fill="none" xmlns="http://www.w3.org/2000/svg">
<rect opacity="0.2" x="0.838064" y="0.838064" width="50.3239" height="50.3239" rx="25.1619" fill="white" fill-opacity="0.6" stroke="url(#paint0_linear_273_2313)" stroke-width="0.323871"/>
<path fill-rule="evenodd" clip-rule="evenodd" d="M13.7868 25.0404C20.7638 22.0768 25.4162 20.123 27.744 19.1791C34.3905 16.4839 35.7716 16.0157 36.6717 16.0002C36.8697 15.9968 37.3124 16.0446 37.5991 16.2715C38.0245 16.608 38.0269 17.3385 37.9797 17.8219C37.6195 21.5115 36.0611 30.465 35.2682 34.5974C34.9326 36.3459 34.2721 36.9323 33.6326 36.9896C32.2428 37.1143 31.1874 36.0941 29.8412 35.2339C27.7349 33.8876 26.5448 33.0496 24.5001 31.736C22.1372 30.2179 23.669 29.3836 25.0156 28.0199C25.3681 27.6631 31.4917 22.2327 31.6102 21.7401C31.6251 21.6785 31.6389 21.4488 31.4989 21.3275C31.3589 21.2063 31.1524 21.2477 31.0034 21.2807C30.7921 21.3275 27.4271 23.4959 20.9083 27.786C19.9531 28.4254 19.088 28.737 18.3129 28.7207C17.4583 28.7027 15.8146 28.2496 14.5926 27.8623C13.0938 27.3874 11.9025 27.1362 12.0063 26.3295C12.0603 25.9093 12.6538 25.4796 13.7868 25.0404Z" fill="white"/>
<defs>
<linearGradient id="paint0_linear_273_2313" x1="1" y1="1" x2="51" y2="51" gradientUnits="userSpaceOnUse">
<stop stop-color="white" stop-opacity="0.25"/>
<stop offset="1" stop-color="white" stop-opacity="0"/>
</linearGradient>
</defs>
</svg>
