<svg width="52" height="52" viewBox="0 0 52 52" fill="none" xmlns="http://www.w3.org/2000/svg">
<rect opacity="0.2" x="0.838064" y="0.83782" width="50.3239" height="50.3239" rx="25.1619" fill="white" fill-opacity="0.6" stroke="url(#paint0_linear_273_1366)" stroke-width="0.323871"/>
<path d="M13.7687 24.7882L13.7687 24.7882C13.2178 25.0072 12.8022 25.2223 12.519 25.4327C12.234 25.6443 12.0935 25.8432 12.0704 26.0272L12.0062 26.0192L12.0704 26.0272C12.0474 26.2111 12.0956 26.3607 12.2024 26.4921C12.3114 26.626 12.4832 26.743 12.7103 26.853C13.0563 27.0206 13.5136 27.1645 14.0362 27.3288C14.2019 27.3809 14.3742 27.4351 14.5516 27.4927C15.1473 27.6864 15.8453 27.8963 16.4982 28.06C17.1525 28.2241 17.7562 28.3404 18.1656 28.3492C18.9037 28.3652 19.7351 28.0608 20.6619 27.4244L20.6623 27.4241C23.845 25.2758 26.258 23.6585 27.9011 22.5724C28.7227 22.0294 29.352 21.619 29.789 21.3414C30.0075 21.2026 30.1783 21.0967 30.3012 21.0239C30.3626 20.9876 30.4126 20.9591 30.4509 20.9389C30.4862 20.9202 30.5188 20.9045 30.5416 20.8993C30.6139 20.8829 30.7075 20.8625 30.8017 20.8632C30.8967 20.864 30.9987 20.8863 31.0828 20.961C31.1671 21.0359 31.2018 21.1409 31.2149 21.2289C31.2279 21.3168 31.2208 21.398 31.2115 21.4374C31.2115 21.4374 31.2115 21.4374 31.2115 21.4374L31.1485 21.4226C31.0602 21.7988 27.5629 25.0502 25.754 26.7319C25.1905 27.2557 24.7909 27.6273 24.7091 27.7122L13.7687 24.7882ZM13.7687 24.7882L13.7706 24.7874M13.7687 24.7882L13.7706 24.7874M13.7706 24.7874C20.5834 21.8191 25.1258 19.8625 27.3982 18.9174C30.6434 17.5676 32.6016 16.7761 33.8583 16.3201C35.116 15.8637 35.6641 15.7461 36.0919 15.7385C36.1835 15.7369 36.3344 15.7475 36.496 15.7862C36.658 15.8249 36.8258 15.8906 36.9555 15.9958L36.9963 15.9455M13.7706 24.7874L36.9963 15.9455M36.9963 15.9455L36.9555 15.9958C37.1453 16.1498 37.2456 16.3984 37.2913 16.6772C37.3367 16.9548 37.3263 17.2525 37.3035 17.4922L37.368 17.4983L36.9963 15.9455Z" fill="white" stroke="url(#paint1_linear_273_1366)" stroke-width="0.129548"/>
<defs>
<linearGradient id="paint0_linear_273_1366" x1="1" y1="0.999756" x2="51" y2="50.9998" gradientUnits="userSpaceOnUse">
<stop stop-color="white" stop-opacity="0.25"/>
<stop offset="1" stop-color="white" stop-opacity="0"/>
</linearGradient>
<linearGradient id="paint1_linear_273_1366" x1="17.2077" y1="34.8186" x2="28.4519" y2="15.8172" gradientUnits="userSpaceOnUse">
<stop stop-color="white" stop-opacity="0.25"/>
<stop offset="1" stop-color="white" stop-opacity="0"/>
</linearGradient>
</defs>
</svg>
