<svg width="16" height="14" viewBox="0 0 16 14" fill="none" xmlns="http://www.w3.org/2000/svg">
    <path
        d="M6.75134 9.21282L2.64379 13.9063H0.526287L5.7794 7.90221L5.81431 7.86231L5.78211 7.82021L0.219947 0.546952H4.77842L8.01914 4.83147L8.06715 4.89494L8.11955 4.83504L11.8709 0.546952H13.987L9.08179 6.15328L9.04708 6.19295L9.07888 6.235L14.8815 13.9063H10.4388L6.85153 9.21613L6.80345 9.15327L6.75134 9.21282ZM10.9869 12.6408L11.0063 12.6662H11.0384H12.3063H12.4365L12.358 12.5623L4.17334 1.7408L4.1539 1.7151H4.12167H2.76103H2.62993L2.70958 1.81923L10.9869 12.6408Z"
        fill="white" stroke="url(#paint0_linear_65_763)" stroke-width="0.129548" />
    <defs>
        <linearGradient id="paint0_linear_65_763" x1="3.14996" y1="12.7605" x2="10.6476"
            y2="1.14791" gradientUnits="userSpaceOnUse">
            <stop stop-color="white" stop-opacity="0.25" />
            <stop offset="1" stop-color="white" stop-opacity="0" />
        </linearGradient>
    </defs>
</svg>
    