<svg width="54" height="70" viewBox="0 0 54 70" fill="none" xmlns="http://www.w3.org/2000/svg">
<path opacity="0.5" d="M25.5858 68.242L8.95458 51.6108C7.34339 49.9996 9.24904 47.3792 11.2783 48.4154L26.0904 55.979C26.6617 56.2708 27.3383 56.2708 27.9096 55.979L42.7217 48.4154C44.751 47.3792 46.6566 49.9996 45.0454 51.6108L28.4142 68.242C27.6332 69.0231 26.3668 69.0231 25.5858 68.242Z" fill="#D9D9D9" fill-opacity="0.6" stroke="white"/>
<path d="M25.5858 25.8534L8.95458 9.22216C7.34339 7.61097 9.24904 4.99049 11.2783 6.02673L26.0904 13.5904C26.6617 13.8821 27.3383 13.8821 27.9096 13.5904L42.7217 6.02673C44.751 4.99049 46.6566 7.61097 45.0454 9.22216L28.4142 25.8534C27.6332 26.6344 26.3668 26.6344 25.5858 25.8534Z" fill="#D9D9D9" fill-opacity="0.6" stroke="white"/>
</svg>
