<svg width="31" height="31" viewBox="0 0 31 31" fill="none" xmlns="http://www.w3.org/2000/svg">
  <path
    d="M20.0779 10.6934V11.2151H20.5996H25.5996C26.7873 11.2151 27.9264 11.6869 28.7662 12.5267C29.6061 13.3666 30.0779 14.5057 30.0779 15.6934V25.6934C30.0779 26.8811 29.6061 28.0201 28.7662 28.86C27.9264 29.6998 26.7873 30.1716 25.5996 30.1716H15.5996C14.4119 30.1716 13.2728 29.6998 12.433 28.86C11.5932 28.0201 11.1213 26.8811 11.1213 25.6934V20.6934V20.1716H10.5996H5.05056C4.00976 20.1675 3.01274 19.7522 2.27676 19.0162C1.54076 18.2802 1.12547 17.2832 1.12135 16.2424V5.14436C1.12547 4.10354 1.54076 3.1065 2.27676 2.37051C3.01275 1.63451 4.00979 1.21922 5.05061 1.2151H16.1486C17.1894 1.21922 18.1865 1.63451 18.9225 2.37051C19.6584 3.10649 20.0737 4.10351 20.0779 5.14431V10.6934ZM10.5996 17.8818H11.1213V17.36V15.6934C11.1213 14.5056 11.5932 13.3666 12.433 12.5267C13.2728 11.6869 14.4119 11.2151 15.5996 11.2151H17.2663H17.788V10.6934V5.14336C17.788 4.70883 17.6154 4.29209 17.3081 3.98483C17.0009 3.67757 16.5841 3.50495 16.1496 3.50495H5.04961C4.61508 3.50495 4.19834 3.67757 3.89108 3.98483C3.58382 4.29209 3.4112 4.70883 3.4112 5.14336V16.2434C3.4112 16.6779 3.58382 17.0946 3.89108 17.4019C4.19834 17.7091 4.61508 17.8818 5.04961 17.8818H10.5996Z"
    fill="url(#paint0_linear_48_2747)" fill-opacity="0.5" stroke="url(#paint1_linear_48_2747)"
    stroke-width="1.04348" />
  <defs>
    <linearGradient id="paint0_linear_48_2747" x1="4.03221" y1="0.693359" x2="4.03221" y2="34.6777"
      gradientUnits="userSpaceOnUse">
      <stop stop-color="#12384F" />
      <stop offset="1" stop-color="#091422" />
    </linearGradient>
    <linearGradient id="paint1_linear_48_2747" x1="0.599609" y1="15.6934" x2="30.5996" y2="15.6934"
      gradientUnits="userSpaceOnUse">
      <stop stop-color="white" stop-opacity="0.8" />
      <stop offset="1" stop-color="white" stop-opacity="0.2" />
    </linearGradient>
  </defs>
</svg>