<svg width="18" height="18" viewBox="0 0 18 18" fill="none" xmlns="http://www.w3.org/2000/svg">
<path d="M15.6218 9.64575C15.75 9.336 15.75 8.94225 15.75 8.15625C15.75 7.37025 15.75 6.9765 15.6218 6.66675C15.5369 6.46195 15.4126 6.27586 15.2559 6.11912C15.0991 5.96238 14.9131 5.83806 14.7083 5.75325C14.3985 5.625 14.0047 5.625 13.2188 5.625H8.325C7.38 5.625 6.9075 5.625 6.54675 5.80875C6.22895 5.97058 5.97058 6.22895 5.80875 6.54675C5.625 6.90675 5.625 7.37925 5.625 8.325V13.2188C5.625 14.0047 5.625 14.3985 5.75325 14.7083C5.925 15.1215 6.2535 15.4508 6.66675 15.6218C6.9765 15.75 7.37025 15.75 8.15625 15.75C8.94225 15.75 9.336 15.75 9.64575 15.6218M15.6218 9.64575C15.5369 9.85055 15.4126 10.0366 15.2559 10.1934C15.0991 10.3501 14.9131 10.4744 14.7083 10.5593C14.3985 10.6875 14.0047 10.6875 13.2188 10.6875C12.4328 10.6875 12.039 10.6875 11.7292 10.8157C11.5244 10.9006 11.3384 11.0249 11.1816 11.1816C11.0249 11.3384 10.9006 11.5244 10.8157 11.7292C10.6875 12.039 10.6875 12.4328 10.6875 13.2188C10.6875 14.0047 10.6875 14.3985 10.5593 14.7083C10.4744 14.9131 10.3501 15.0991 10.1934 15.2559C10.0366 15.4126 9.85055 15.5369 9.64575 15.6218M15.6218 9.64575C15.2183 11.0369 14.4761 12.3063 13.4618 13.3403C12.4474 14.3744 11.1924 15.1407 9.80925 15.5707L9.64575 15.6218M12.375 5.625V4.95C12.375 4.005 12.375 3.5325 12.1912 3.17175C12.0296 2.85406 11.7715 2.59571 11.454 2.43375C11.0925 2.25 10.62 2.25 9.675 2.25H4.95C4.005 2.25 3.5325 2.25 3.17175 2.43375C2.85395 2.59558 2.59558 2.85395 2.43375 3.17175C2.25 3.53175 2.25 4.00425 2.25 4.95V9.675C2.25 10.62 2.25 11.0925 2.43375 11.4532C2.59575 11.7712 2.85375 12.0292 3.17175 12.1912C3.53175 12.375 4.005 12.375 4.95075 12.375H5.625" stroke="white" stroke-width="1.5" stroke-linecap="round" stroke-linejoin="round"/>
</svg>
