<svg width="25" height="25" viewBox="0 0 25 25" fill="none" xmlns="http://www.w3.org/2000/svg">
<path d="M12.75 24.6934C19.3774 24.6934 24.75 19.3208 24.75 12.6934C24.75 6.06594 19.3774 0.693359 12.75 0.693359C6.12258 0.693359 0.75 6.06594 0.75 12.6934C0.75 19.3208 6.12258 24.6934 12.75 24.6934Z" fill="#26A17B"/>
<path fill-rule="evenodd" clip-rule="evenodd" d="M14.1911 13.7306V13.7291C14.1086 13.7351 13.6834 13.7606 12.7346 13.7606C11.9771 13.7606 11.4439 13.7381 11.2564 13.7291V13.7314C8.34036 13.6031 6.16386 13.0954 6.16386 12.4879C6.16386 11.8811 8.34036 11.3734 11.2564 11.2429V13.2259C11.4469 13.2394 11.9929 13.2716 12.7474 13.2716C13.6526 13.2716 14.1064 13.2341 14.1911 13.2266V11.2444C17.1011 11.3741 19.2724 11.8819 19.2724 12.4879C19.2724 13.0954 17.1011 13.6016 14.1911 13.7306ZM14.1911 11.0381V9.26362H18.2516V6.55762H7.19586V9.26362H11.2564V11.0374C7.95636 11.1889 5.47461 11.8429 5.47461 12.6259C5.47461 13.4089 7.95636 14.0621 11.2564 14.2144V19.9009H14.1911V14.2129C17.4859 14.0614 19.9616 13.4081 19.9616 12.6259C19.9616 11.8436 17.4859 11.1904 14.1911 11.0381Z" fill="white"/>
</svg>
