<svg width="79" height="50" viewBox="0 0 79 50" fill="none" xmlns="http://www.w3.org/2000/svg">
<mask id="mask0_273_1281" style="mask-type:alpha" maskUnits="userSpaceOnUse" x="3" y="2" width="71" height="45">
<path fill-rule="evenodd" clip-rule="evenodd" d="M72.0581 2.48962C72.6762 2.11316 73.5518 2.89956 73.1737 3.51662C70.8842 7.253 68.1646 11.3262 65.6825 14.2162C65.2503 14.7194 65.7317 15.5137 66.358 15.2954C67.5519 14.8792 68.7102 14.3983 69.8258 13.8713C70.3544 13.6217 70.9351 14.1412 70.7351 14.6904C62.0012 38.6777 50.6468 45.9805 35.7478 46.7709C22.3427 47.482 9.71856 45.7945 4.39582 44.7386C4.01711 44.6635 3.79939 44.2752 3.92834 43.9113C6.87139 35.6058 14.6091 18.7463 24.0119 12.563C29.4062 9.01577 37.3816 8.56755 45.8054 8.09412C54.9345 7.58107 64.5902 7.03841 72.0581 2.48962Z" fill="#D9D9D9"/>
</mask>
<g mask="url(#mask0_273_1281)">
<path d="M24.0111 12.5642C14.6082 18.7474 6.87055 35.6069 3.9275 43.9125C3.79854 44.2764 4.01627 44.6647 4.39498 44.7398C9.71771 45.7956 22.3419 47.4832 35.747 46.7721C52.9635 45.8588 65.4469 36.2494 74.6233 2.24836C74.7875 1.64002 74.0508 1.14848 73.5378 1.51438C59.2872 11.679 35.6457 4.91336 24.0111 12.5642Z" fill="#F2E63D"/>
<path d="M24.0111 12.5642C14.6082 18.7475 6.87055 35.6069 3.9275 43.9125C3.79854 44.2764 4.01627 44.6647 4.39498 44.7398C9.71771 45.7956 22.3419 47.4832 35.747 46.7721C52.9635 45.8588 65.4469 36.2494 74.6233 2.24836C74.7875 1.64002 74.0508 1.14848 73.5378 1.51438C59.2872 11.679 35.6457 4.91337 24.0111 12.5642Z" fill="url(#paint0_linear_273_1281)"/>
<g filter="url(#filter0_f_273_1281)">
<path fill-rule="evenodd" clip-rule="evenodd" d="M-110.147 100.985C-110.24 101.067 -110.309 101.176 -110.343 101.295L-137.538 197.541C-137.647 197.927 -137.339 198.304 -136.939 198.274C-137.187 198.293 -137.31 197.979 -137.114 197.824L-21.8173 106.841C-21.7865 106.817 -21.758 106.79 -21.7322 106.761L59.6245 14.0893C59.9773 13.6874 59.7218 13.0575 59.1877 13.0309C15.1424 10.835 -40.8652 40.128 -110.147 100.985Z" fill="#FFCFC7"/>
</g>
<g filter="url(#filter1_f_273_1281)">
<path fill-rule="evenodd" clip-rule="evenodd" d="M-116.154 106.999C-116.247 107.081 -116.316 107.189 -116.35 107.309L-143.545 203.555C-143.654 203.941 -143.346 204.318 -142.946 204.288C-143.194 204.307 -143.317 203.993 -143.121 203.838L-27.8244 112.855C-27.7936 112.831 -27.7652 112.804 -27.7393 112.775L53.6173 20.1031C53.9702 19.7012 53.7147 19.0714 53.1805 19.0447C9.1353 16.8489 -46.8723 46.1418 -116.154 106.999Z" fill="#FF896E"/>
</g>
<g filter="url(#filter2_f_273_1281)">
<path d="M24.2893 17.0593C11.9465 19.3399 10.0551 12.7446 9.79716 7.79216C9.78201 7.50143 9.57955 7.25311 9.29617 7.18638L-2.09055 4.50493C-2.44376 4.42176 -2.79596 4.64648 -2.86935 5.00184L-11.7273 47.8905C-11.779 48.1412 -11.6775 48.3987 -11.4686 48.5467L4.0221 59.5184C4.09576 59.5706 4.17956 59.6067 4.26807 59.6244L38.2374 66.4239C38.3934 66.4552 38.5555 66.4276 38.6924 66.3465L63.5693 51.6064C64.0793 51.3042 63.947 50.5379 63.3634 50.4333C56.3854 49.183 45.771 47.531 46.6765 41.8667C47.4905 36.7753 60.9314 22.9521 56.7608 17.0593C53.6329 12.6398 40.2357 14.1129 24.2893 17.0593Z" fill="#FFC494"/>
</g>
<g filter="url(#filter3_f_273_1281)">
<path d="M25.6911 22.3021C15.6086 24.1634 12.5473 17.1025 12.2063 12.9103C12.1827 12.6201 11.9812 12.3731 11.6978 12.3064L2.53669 10.1509C2.18356 10.0678 1.83146 10.2924 1.75803 10.6477L-5.48497 45.6881C-5.53681 45.939 -5.43521 46.1967 -5.22615 46.3446L7.4276 55.2996C7.50124 55.3517 7.58501 55.3878 7.67347 55.4054L35.4778 60.9663C35.6663 61.004 35.8617 60.9556 36.0108 60.8343L49.8306 49.5943C50.2551 49.249 50.0833 48.5638 49.5479 48.4509C44.4396 47.3741 39.6727 45.693 40.4142 41.0589C41.0833 36.8767 54.3305 27.1425 50.9018 22.3021C48.3303 18.6717 38.8007 19.8818 25.6911 22.3021Z" fill="#FF876D"/>
</g>
<g filter="url(#filter4_f_273_1281)">
<path d="M17.8265 31.9842C10.6428 33.3213 9.27471 26.0296 9.07194 22.7371C9.05406 22.4469 8.85242 22.2016 8.56948 22.1345L2.27561 20.6414C1.92178 20.5575 1.56862 20.7828 1.49559 21.139L-3.66973 46.3334C-3.72091 46.583 -3.62018 46.8393 -3.41274 46.9873L5.59062 53.4113C5.66446 53.464 5.7486 53.5005 5.83752 53.5184L25.9037 57.5646C26.0131 57.5867 26.1263 57.58 26.2323 57.5451L38.6655 53.4572C39.2963 53.2498 39.1715 52.297 38.7602 51.7756C38.2275 51.1004 38.779 50.1581 36.982 48.5224C31.4423 43.4803 41.0157 32.9926 36.982 29.4356C32.1462 25.1714 27.2831 30.224 17.8265 31.9842Z" fill="#FF5177"/>
</g>
<g filter="url(#filter5_f_273_1281)">
<path d="M16.6156 32.7905C9.43191 34.1276 8.06378 26.8359 7.861 23.5434C7.84313 23.2532 7.64149 23.0079 7.35855 22.9408L1.06467 21.4477C0.710841 21.3638 0.357686 21.5891 0.28465 21.9453L-4.88067 47.1397C-4.93185 47.3893 -4.83112 47.6456 -4.62368 47.7936L4.37968 54.2176C4.45353 54.2703 4.53766 54.3068 4.62659 54.3247L24.6927 58.371C24.8021 58.393 24.9154 58.3863 25.0214 58.3514L37.4545 54.2635C38.0854 54.0561 37.9606 53.1033 37.5493 52.5819C37.0166 51.9067 37.5681 50.9644 35.771 49.3287C30.2314 44.2866 39.8047 33.7989 35.771 30.2419C30.9353 25.9777 26.0721 31.0303 16.6156 32.7905Z" fill="url(#paint1_linear_273_1281)"/>
</g>
<g filter="url(#filter6_f_273_1281)">
<path d="M11.7836 37.228C4.59988 38.5651 3.23174 31.2735 3.02897 27.981C3.0111 27.6907 2.80945 27.4455 2.52651 27.3784L-3.76736 25.8853C-4.12119 25.8013 -4.47435 26.0266 -4.54738 26.3829L-9.7127 51.5772C-9.76388 51.8269 -9.66315 52.0832 -9.45571 52.2312L-0.452351 58.6552C-0.378506 58.7079 -0.29437 58.7444 -0.205444 58.7623L19.8607 62.8085C19.9701 62.8306 20.0833 62.8238 20.1893 62.789L32.6225 58.7011C33.2533 58.4937 33.1285 57.5409 32.7172 57.0195C32.1846 56.3443 32.736 55.402 30.939 53.7663C25.3994 48.7241 34.9727 38.2364 30.939 34.6794C26.1033 30.4152 21.2401 35.4678 11.7836 37.228Z" fill="#62D2E0"/>
</g>
<g opacity="0.5" filter="url(#filter7_f_273_1281)">
<circle cx="8.34521" cy="51.143" r="11.2944" fill="white"/>
</g>
<g opacity="0.5" filter="url(#filter8_f_273_1281)">
<circle cx="77.3308" cy="7.57839" r="20.9754" fill="white"/>
</g>
<g filter="url(#filter9_f_273_1281)">
<mask id="mask1_273_1281" style="mask-type:alpha" maskUnits="userSpaceOnUse" x="3" y="2" width="71" height="45">
<path fill-rule="evenodd" clip-rule="evenodd" d="M72.0581 2.48968C72.6762 2.11322 73.5518 2.89962 73.1737 3.51668C70.8842 7.25306 68.1646 11.3262 65.6825 14.2163C65.2503 14.7195 65.7317 15.5138 66.358 15.2954C67.5519 14.8792 68.7102 14.3984 69.8258 13.8714C70.3544 13.6217 70.9351 14.1412 70.7351 14.6905C62.0012 38.6778 50.6468 45.9806 35.7478 46.7709C22.3427 47.4821 9.71856 45.7945 4.39582 44.7387C4.01711 44.6636 3.79939 44.2753 3.92834 43.9113C6.87139 35.6058 14.6091 18.7463 24.0119 12.5631C29.4062 9.01583 37.3816 8.56761 45.8054 8.09419C54.9345 7.58113 64.5902 7.03847 72.0581 2.48968Z" fill="#D9D9D9"/>
</mask>
<g mask="url(#mask1_273_1281)">
<path d="M24.0111 12.5642C14.6082 18.7475 6.87055 35.607 3.9275 43.9125C3.79854 44.2764 4.01627 44.6647 4.39498 44.7398C9.71771 45.7957 22.3419 47.4832 35.747 46.7721C52.9635 45.8588 65.4469 36.2494 74.6233 2.24839C74.7875 1.64005 74.0508 1.14851 73.5378 1.51441C59.2872 11.679 35.6457 4.91339 24.0111 12.5642Z" fill="#F2E63D"/>
<path d="M24.0111 12.5642C14.6082 18.7475 6.87055 35.607 3.9275 43.9125C3.79854 44.2764 4.01627 44.6647 4.39498 44.7398C9.71771 45.7957 22.3419 47.4832 35.747 46.7721C52.9635 45.8588 65.4469 36.2494 74.6233 2.24839C74.7875 1.64005 74.0508 1.14851 73.5378 1.51441C59.2872 11.679 35.6457 4.9134 24.0111 12.5642Z" fill="url(#paint2_linear_273_1281)"/>
<g filter="url(#filter10_f_273_1281)">
<path fill-rule="evenodd" clip-rule="evenodd" d="M-110.147 100.985C-110.24 101.067 -110.309 101.176 -110.343 101.295L-137.538 197.541C-137.647 197.927 -137.339 198.304 -136.939 198.274C-137.187 198.293 -137.31 197.979 -137.114 197.824L-21.8173 106.841C-21.7865 106.817 -21.758 106.79 -21.7322 106.761L59.6245 14.0893C59.9773 13.6874 59.7218 13.0575 59.1877 13.0309C15.1424 10.835 -40.8652 40.128 -110.147 100.985Z" fill="#FFCFC7"/>
</g>
<g filter="url(#filter11_f_273_1281)">
<path fill-rule="evenodd" clip-rule="evenodd" d="M-116.154 106.999C-116.247 107.081 -116.316 107.189 -116.35 107.309L-143.545 203.555C-143.654 203.941 -143.346 204.318 -142.946 204.288C-143.194 204.307 -143.317 203.993 -143.121 203.838L-27.8244 112.855C-27.7936 112.831 -27.7652 112.804 -27.7393 112.775L53.6173 20.1031C53.9702 19.7012 53.7147 19.0714 53.1805 19.0447C9.1353 16.8489 -46.8723 46.1418 -116.154 106.999Z" fill="#FF896E"/>
</g>
<g filter="url(#filter12_f_273_1281)">
<path d="M24.2893 17.0594C11.9465 19.3399 10.0551 12.7447 9.79716 7.79219C9.78201 7.50146 9.57955 7.25314 9.29617 7.18641L-2.09055 4.50496C-2.44376 4.42179 -2.79596 4.64651 -2.86935 5.00187L-11.7273 47.8905C-11.779 48.1412 -11.6775 48.3988 -11.4686 48.5467L4.0221 59.5185C4.09576 59.5706 4.17956 59.6068 4.26807 59.6245L38.2374 66.424C38.3934 66.4552 38.5555 66.4276 38.6924 66.3465L63.5693 51.6064C64.0793 51.3042 63.947 50.5379 63.3634 50.4334C56.3854 49.1831 45.771 47.531 46.6765 41.8668C47.4905 36.7754 60.9314 22.9521 56.7608 17.0594C53.6329 12.6398 40.2357 14.113 24.2893 17.0594Z" fill="#FFC494"/>
</g>
<g filter="url(#filter13_f_273_1281)">
<path d="M25.6911 22.3021C15.6086 24.1634 12.5473 17.1025 12.2063 12.9103C12.1827 12.6201 11.9812 12.3731 11.6978 12.3064L2.53669 10.1509C2.18356 10.0678 1.83146 10.2924 1.75803 10.6477L-5.48497 45.6881C-5.53681 45.939 -5.43521 46.1967 -5.22615 46.3446L7.4276 55.2996C7.50124 55.3517 7.58501 55.3878 7.67347 55.4054L35.4778 60.9663C35.6663 61.004 35.8617 60.9556 36.0108 60.8343L49.8306 49.5943C50.2551 49.249 50.0833 48.5638 49.5479 48.4509C44.4396 47.3741 39.6727 45.693 40.4142 41.0589C41.0833 36.8767 54.3305 27.1425 50.9018 22.3021C48.3303 18.6717 38.8007 19.8818 25.6911 22.3021Z" fill="#FF876D"/>
</g>
<g filter="url(#filter14_f_273_1281)">
<path d="M17.8265 31.9842C10.6428 33.3213 9.27471 26.0296 9.07194 22.7371C9.05406 22.4469 8.85242 22.2016 8.56948 22.1345L2.27561 20.6414C1.92178 20.5575 1.56862 20.7828 1.49559 21.139L-3.66973 46.3334C-3.72091 46.583 -3.62018 46.8393 -3.41274 46.9873L5.59062 53.4113C5.66446 53.464 5.7486 53.5005 5.83752 53.5184L25.9037 57.5646C26.0131 57.5867 26.1263 57.58 26.2323 57.5451L38.6655 53.4572C39.2963 53.2498 39.1715 52.297 38.7602 51.7756C38.2275 51.1004 38.779 50.1581 36.982 48.5224C31.4423 43.4803 41.0157 32.9926 36.982 29.4356C32.1462 25.1714 27.2831 30.224 17.8265 31.9842Z" fill="#FF5177"/>
</g>
<g filter="url(#filter15_f_273_1281)">
<path d="M16.6156 32.7905C9.43191 34.1276 8.06378 26.8359 7.861 23.5434C7.84313 23.2532 7.64149 23.0079 7.35855 22.9408L1.06467 21.4477C0.710841 21.3638 0.357686 21.5891 0.28465 21.9453L-4.88067 47.1397C-4.93185 47.3893 -4.83112 47.6456 -4.62368 47.7936L4.37968 54.2176C4.45353 54.2703 4.53766 54.3068 4.62659 54.3247L24.6927 58.371C24.8021 58.393 24.9154 58.3863 25.0214 58.3514L37.4545 54.2635C38.0854 54.0561 37.9606 53.1033 37.5493 52.5819C37.0166 51.9067 37.5681 50.9644 35.771 49.3287C30.2314 44.2866 39.8047 33.7989 35.771 30.2419C30.9353 25.9777 26.0721 31.0303 16.6156 32.7905Z" fill="url(#paint3_linear_273_1281)"/>
</g>
<g filter="url(#filter16_f_273_1281)">
<path d="M11.7836 37.228C4.59988 38.5651 3.23174 31.2735 3.02897 27.981C3.0111 27.6907 2.80945 27.4455 2.52651 27.3784L-3.76736 25.8853C-4.12119 25.8013 -4.47435 26.0266 -4.54738 26.3829L-9.7127 51.5772C-9.76388 51.8269 -9.66315 52.0832 -9.45571 52.2312L-0.452351 58.6552C-0.378506 58.7079 -0.29437 58.7444 -0.205444 58.7623L19.8607 62.8085C19.9701 62.8306 20.0833 62.8238 20.1893 62.789L32.6225 58.7011C33.2533 58.4937 33.1285 57.5409 32.7172 57.0195C32.1846 56.3443 32.736 55.402 30.939 53.7663C25.3994 48.7241 34.9727 38.2364 30.939 34.6794C26.1033 30.4152 21.2401 35.4678 11.7836 37.228Z" fill="#62D2E0"/>
</g>
<g opacity="0.5" filter="url(#filter17_f_273_1281)">
<circle cx="8.34521" cy="51.143" r="11.2944" fill="white"/>
</g>
<g opacity="0.5" filter="url(#filter18_f_273_1281)">
<circle cx="77.3308" cy="7.57839" r="20.9754" fill="white"/>
</g>
</g>
</g>
</g>
<defs>
<filter id="filter0_f_273_1281" x="-430.561" y="-280.085" width="783.349" height="771.362" filterUnits="userSpaceOnUse" color-interpolation-filters="sRGB">
<feFlood flood-opacity="0" result="BackgroundImageFix"/>
<feBlend mode="normal" in="SourceGraphic" in2="BackgroundImageFix" result="shape"/>
<feGaussianBlur stdDeviation="146.5" result="effect1_foregroundBlur_273_1281"/>
</filter>
<filter id="filter1_f_273_1281" x="-192.401" y="-29.9036" width="295.015" height="283.027" filterUnits="userSpaceOnUse" color-interpolation-filters="sRGB">
<feFlood flood-opacity="0" result="BackgroundImageFix"/>
<feBlend mode="normal" in="SourceGraphic" in2="BackgroundImageFix" result="shape"/>
<feGaussianBlur stdDeviation="24.4168" result="effect1_foregroundBlur_273_1281"/>
</filter>
<filter id="filter2_f_273_1281" x="-21.4063" y="-5.17848" width="94.9582" height="81.2811" filterUnits="userSpaceOnUse" color-interpolation-filters="sRGB">
<feFlood flood-opacity="0" result="BackgroundImageFix"/>
<feBlend mode="normal" in="SourceGraphic" in2="BackgroundImageFix" result="shape"/>
<feGaussianBlur stdDeviation="4.83305" result="effect1_foregroundBlur_273_1281"/>
</filter>
<filter id="filter3_f_273_1281" x="-11.9421" y="3.68953" width="69.8539" height="63.7334" filterUnits="userSpaceOnUse" color-interpolation-filters="sRGB">
<feFlood flood-opacity="0" result="BackgroundImageFix"/>
<feBlend mode="normal" in="SourceGraphic" in2="BackgroundImageFix" result="shape"/>
<feGaussianBlur stdDeviation="3.22203" result="effect1_foregroundBlur_273_1281"/>
</filter>
<filter id="filter4_f_273_1281" x="-10.1267" y="14.1798" width="55.6743" height="49.8416" filterUnits="userSpaceOnUse" color-interpolation-filters="sRGB">
<feFlood flood-opacity="0" result="BackgroundImageFix"/>
<feBlend mode="normal" in="SourceGraphic" in2="BackgroundImageFix" result="shape"/>
<feGaussianBlur stdDeviation="3.22203" result="effect1_foregroundBlur_273_1281"/>
</filter>
<filter id="filter5_f_273_1281" x="-11.3376" y="14.9861" width="55.6743" height="49.8416" filterUnits="userSpaceOnUse" color-interpolation-filters="sRGB">
<feFlood flood-opacity="0" result="BackgroundImageFix"/>
<feBlend mode="normal" in="SourceGraphic" in2="BackgroundImageFix" result="shape"/>
<feGaussianBlur stdDeviation="3.22203" result="effect1_foregroundBlur_273_1281"/>
</filter>
<filter id="filter6_f_273_1281" x="-16.1696" y="19.4237" width="55.6743" height="49.8416" filterUnits="userSpaceOnUse" color-interpolation-filters="sRGB">
<feFlood flood-opacity="0" result="BackgroundImageFix"/>
<feBlend mode="normal" in="SourceGraphic" in2="BackgroundImageFix" result="shape"/>
<feGaussianBlur stdDeviation="3.22203" result="effect1_foregroundBlur_273_1281"/>
</filter>
<filter id="filter7_f_273_1281" x="-15.8373" y="26.9604" width="48.3651" height="48.3651" filterUnits="userSpaceOnUse" color-interpolation-filters="sRGB">
<feFlood flood-opacity="0" result="BackgroundImageFix"/>
<feBlend mode="normal" in="SourceGraphic" in2="BackgroundImageFix" result="shape"/>
<feGaussianBlur stdDeviation="6.44406" result="effect1_foregroundBlur_273_1281"/>
</filter>
<filter id="filter8_f_273_1281" x="43.4673" y="-26.2851" width="67.7274" height="67.727" filterUnits="userSpaceOnUse" color-interpolation-filters="sRGB">
<feFlood flood-opacity="0" result="BackgroundImageFix"/>
<feBlend mode="normal" in="SourceGraphic" in2="BackgroundImageFix" result="shape"/>
<feGaussianBlur stdDeviation="6.44406" result="effect1_foregroundBlur_273_1281"/>
</filter>
<filter id="filter9_f_273_1281" x="-8.99749" y="-10.4965" width="95.1512" height="70.3252" filterUnits="userSpaceOnUse" color-interpolation-filters="sRGB">
<feFlood flood-opacity="0" result="BackgroundImageFix"/>
<feBlend mode="normal" in="SourceGraphic" in2="BackgroundImageFix" result="shape"/>
<feGaussianBlur stdDeviation="6.44406" result="effect1_foregroundBlur_273_1281"/>
</filter>
<filter id="filter10_f_273_1281" x="-430.561" y="-280.085" width="783.349" height="771.362" filterUnits="userSpaceOnUse" color-interpolation-filters="sRGB">
<feFlood flood-opacity="0" result="BackgroundImageFix"/>
<feBlend mode="normal" in="SourceGraphic" in2="BackgroundImageFix" result="shape"/>
<feGaussianBlur stdDeviation="146.5" result="effect1_foregroundBlur_273_1281"/>
</filter>
<filter id="filter11_f_273_1281" x="-192.401" y="-29.9036" width="295.015" height="283.027" filterUnits="userSpaceOnUse" color-interpolation-filters="sRGB">
<feFlood flood-opacity="0" result="BackgroundImageFix"/>
<feBlend mode="normal" in="SourceGraphic" in2="BackgroundImageFix" result="shape"/>
<feGaussianBlur stdDeviation="24.4168" result="effect1_foregroundBlur_273_1281"/>
</filter>
<filter id="filter12_f_273_1281" x="-21.4063" y="-5.17845" width="94.9582" height="81.2811" filterUnits="userSpaceOnUse" color-interpolation-filters="sRGB">
<feFlood flood-opacity="0" result="BackgroundImageFix"/>
<feBlend mode="normal" in="SourceGraphic" in2="BackgroundImageFix" result="shape"/>
<feGaussianBlur stdDeviation="4.83305" result="effect1_foregroundBlur_273_1281"/>
</filter>
<filter id="filter13_f_273_1281" x="-11.9421" y="3.68953" width="69.8539" height="63.7334" filterUnits="userSpaceOnUse" color-interpolation-filters="sRGB">
<feFlood flood-opacity="0" result="BackgroundImageFix"/>
<feBlend mode="normal" in="SourceGraphic" in2="BackgroundImageFix" result="shape"/>
<feGaussianBlur stdDeviation="3.22203" result="effect1_foregroundBlur_273_1281"/>
</filter>
<filter id="filter14_f_273_1281" x="-10.1267" y="14.1798" width="55.6743" height="49.8416" filterUnits="userSpaceOnUse" color-interpolation-filters="sRGB">
<feFlood flood-opacity="0" result="BackgroundImageFix"/>
<feBlend mode="normal" in="SourceGraphic" in2="BackgroundImageFix" result="shape"/>
<feGaussianBlur stdDeviation="3.22203" result="effect1_foregroundBlur_273_1281"/>
</filter>
<filter id="filter15_f_273_1281" x="-11.3376" y="14.9861" width="55.6743" height="49.8416" filterUnits="userSpaceOnUse" color-interpolation-filters="sRGB">
<feFlood flood-opacity="0" result="BackgroundImageFix"/>
<feBlend mode="normal" in="SourceGraphic" in2="BackgroundImageFix" result="shape"/>
<feGaussianBlur stdDeviation="3.22203" result="effect1_foregroundBlur_273_1281"/>
</filter>
<filter id="filter16_f_273_1281" x="-16.1696" y="19.4237" width="55.6743" height="49.8416" filterUnits="userSpaceOnUse" color-interpolation-filters="sRGB">
<feFlood flood-opacity="0" result="BackgroundImageFix"/>
<feBlend mode="normal" in="SourceGraphic" in2="BackgroundImageFix" result="shape"/>
<feGaussianBlur stdDeviation="3.22203" result="effect1_foregroundBlur_273_1281"/>
</filter>
<filter id="filter17_f_273_1281" x="-15.8373" y="26.9604" width="48.3651" height="48.3651" filterUnits="userSpaceOnUse" color-interpolation-filters="sRGB">
<feFlood flood-opacity="0" result="BackgroundImageFix"/>
<feBlend mode="normal" in="SourceGraphic" in2="BackgroundImageFix" result="shape"/>
<feGaussianBlur stdDeviation="6.44406" result="effect1_foregroundBlur_273_1281"/>
</filter>
<filter id="filter18_f_273_1281" x="43.4673" y="-26.2851" width="67.7274" height="67.727" filterUnits="userSpaceOnUse" color-interpolation-filters="sRGB">
<feFlood flood-opacity="0" result="BackgroundImageFix"/>
<feBlend mode="normal" in="SourceGraphic" in2="BackgroundImageFix" result="shape"/>
<feGaussianBlur stdDeviation="6.44406" result="effect1_foregroundBlur_273_1281"/>
</filter>
<linearGradient id="paint0_linear_273_1281" x1="55.7076" y1="-9.06591" x2="68.2617" y2="86.8423" gradientUnits="userSpaceOnUse">
<stop stop-color="#F2E63D"/>
<stop offset="1" stop-color="#FFFBC1"/>
</linearGradient>
<linearGradient id="paint1_linear_273_1281" x1="4.51441" y1="45.9001" x2="39.8095" y2="29.1601" gradientUnits="userSpaceOnUse">
<stop stop-color="#BED0FF"/>
<stop offset="1" stop-color="#A1BBFF"/>
</linearGradient>
<linearGradient id="paint2_linear_273_1281" x1="55.7076" y1="-9.06588" x2="68.2617" y2="86.8423" gradientUnits="userSpaceOnUse">
<stop stop-color="#F2E63D"/>
<stop offset="1" stop-color="#FFFBC1"/>
</linearGradient>
<linearGradient id="paint3_linear_273_1281" x1="4.51441" y1="45.9001" x2="39.8095" y2="29.1601" gradientUnits="userSpaceOnUse">
<stop stop-color="#BED0FF"/>
<stop offset="1" stop-color="#A1BBFF"/>
</linearGradient>
</defs>
</svg>
